<svg version="1.0" xmlns="http://www.w3.org/2000/svg" width="1638.000000ptpx" height="395.000000ptpx" viewBox="0 0 1638.000000 395.000000" preserveAspectRatio="xMidYMid meet" transform="rotate(0) scale(1, 1)">

<g transform="translate(0.000000,395.000000) scale(0.100000,-0.100000)" fill="#9c0d27" stroke="none">
<path d="M4195 3358 c-22 -5 -62 -14 -90 -19 -166 -35 -356 -120 -485 -217&#10;-279 -211 -449 -523 -490 -904 -25 -237 2 -544 65 -743 94 -292 286 -538 530&#10;-680 70 -41 155 -81 196 -93 250 -75 328 -85 582 -79 219 5 275 13 427 61 130&#10;41 179 64 305 145 153 99 265 217 367 386 82 138 125 258 165 460 25 131 25&#10;501 -1 640 -40 219 -97 368 -201 526 -167 255 -437 437 -740 498 -33 7 -74 16&#10;-91 22 -39 12 -486 10 -539 -3z m495 -550 c79 -27 156 -74 221 -135 72 -67&#10;166 -224 190 -318 4 -16 15 -59 25 -95 22 -84 26 -433 6 -525 -41 -181 -105&#10;-308 -206 -410 -77 -77 -172 -131 -276 -156 -74 -19 -317 -18 -395 0 -324 76&#10;-493 360 -495 826 0 301 70 514 220 666 96 97 205 152 335 170 106 14 302 2&#10;375 -23z"/>
<path d="M650 3305 c0 -11 43 -90 62 -115 10 -14 49 -72 87 -130 37 -58 95&#10;-148 128 -200 34 -52 136 -210 227 -350 90 -140 199 -308 241 -372 42 -65 75&#10;-121 73 -125 -1 -5 -34 -55 -72 -113 -338 -513 -576 -878 -681 -1045 -49 -77&#10;-97 -149 -107 -161 -10 -11 -18 -23 -18 -27 0 -4 157 -7 350 -7 346 0 349 0&#10;370 22 11 12 20 26 20 31 0 5 20 39 43 76 24 36 65 102 92 146 27 44 104 172&#10;173 285 68 113 140 230 158 261 18 31 40 61 47 68 15 11 25 -1 72 -84 45 -79&#10;323 -559 345 -595 15 -25 45 -76 65 -115 21 -38 42 -76 48 -82 7 -10 93 -13&#10;368 -13 198 0 359 2 359 4 0 2 -40 64 -88 137 -87 132 -253 391 -302 469 -14&#10;22 -54 85 -90 140 -36 55 -96 149 -135 209 -38 60 -111 173 -162 251 l-91 141&#10;91 142 c105 162 220 337 530 807 119 182 217 335 217 340 0 6 -126 10 -355 10&#10;l-355 0 -13 -22 c-28 -45 -420 -704 -439 -736 -40 -72 -50 -83 -63 -72 -7 6&#10;-59 93 -115 193 -57 100 -114 202 -129 227 -14 25 -32 57 -41 71 -8 15 -55 97&#10;-104 183 l-90 156 -358 0 c-197 0 -358 -2 -358 -5z"/>
<path d="M6132 1986 l3 -1326 318 0 317 0 0 439 c0 342 3 441 13 449 8 7 129&#10;11 347 12 184 0 351 5 370 9 19 5 60 15 90 21 86 19 198 58 249 87 206 120&#10;315 269 367 503 17 78 19 406 3 496 -58 331 -248 522 -609 611 -56 14 -166 17&#10;-768 20 l-704 4 4 -1325z m1206 829 c134 -32 204 -87 237 -188 26 -78 23 -312&#10;-4 -385 -66 -178 -202 -227 -606 -220 l-190 3 -3 380 c-1 209 0 390 3 403 l5&#10;22 248 0 c183 0 263 -4 310 -15z"/>
<path d="M8459 3303 c0 -5 -1 -125 -1 -268 l0 -260 396 -3 396 -2 0 -1055 0&#10;-1055 318 0 319 0 6 188 c4 103 7 577 7 1055 l0 867 394 0 c306 0 395 3 398&#10;13 2 6 3 127 3 267 l0 255 -1117 3 c-615 1 -1118 -1 -1119 -5z"/>
<path d="M11179 3298 c0 -7 -4 -119 -10 -248 -35 -889 -74 -1378 -124 -1570&#10;-40 -153 -121 -252 -233 -283 -34 -9 -80 -17 -102 -17 l-40 0 2 -272 3 -273&#10;45 -3 c60 -5 251 15 325 34 33 8 101 35 152 60 111 53 204 139 277 256 162&#10;261 210 558 256 1583 4 110 9 201 9 203 1 1 144 1 319 0 l317 -3 1 -1050 1&#10;-1050 311 -3 312 -2 0 1325 0 1325 -910 0 c-721 0 -910 -3 -911 -12z"/>
<path d="M13478 3303 c-2 -5 -2 -601 0 -1325 l2 -1318 294 0 294 0 86 133&#10;c193 298 267 414 293 457 15 25 73 115 128 200 101 155 457 708 485 754 8 13&#10;30 49 49 80 18 32 38 55 45 53 8 -3 12 -221 14 -840 l2 -837 294 0 294 0 7 73&#10;c3 39 5 635 3 1322 l-3 1250 -311 3 -310 2 -134 -202 c-193 -294 -220 -336&#10;-405 -628 -165 -259 -246 -388 -289 -461 -73 -123 -201 -338 -213 -357 -8 -13&#10;-19 -22 -24 -20 -6 2 -11 305 -12 833 l-2 830 -292 3 c-160 1 -293 -1 -295 -5z"/>
</g>
</svg>